<?xml version="1.0" encoding="UTF-8" standalone="no"?><!DOCTYPE svg PUBLIC "-//W3C//DTD SVG 1.1//EN" "http://www.w3.org/Graphics/SVG/1.1/DTD/svg11.dtd"><!-- Generated by graphviz version 2.40.1 (20161225.0304)
 --><!-- Title: G Pages: 1 --><svg xmlns="http://www.w3.org/2000/svg" xmlns:xlink="http://www.w3.org/1999/xlink" width="375pt" height="366pt" viewBox="0.00 0.00 374.64 365.60">
<g id="graph0" class="graph" transform="scale(1 1) rotate(0) translate(4 361.6)">
<title>G</title>
<polygon fill="#ffffff" stroke="transparent" points="-4,4 -4,-361.6 370.6358,-361.6 370.6358,4 -4,4"/>
<g id="clust2" class="cluster">
<title>cluster_0</title>
<polygon fill="none" stroke="#000000" points="64.3179,-164.8 64.3179,-313.6 179.3179,-313.6 179.3179,-164.8 64.3179,-164.8"/>
<text text-anchor="middle" x="121.8179" y="-297" font-family="Times,serif" font-size="14.00" fill="#000000">broker #1 Scenes </text>
</g>
<g id="clust4" class="cluster">
<title>cluster_1</title>
<polygon fill="none" stroke="#000000" points="187.3179,-164.8 187.3179,-313.6 299.3179,-313.6 299.3179,-164.8 187.3179,-164.8"/>
<text text-anchor="middle" x="243.3179" y="-297" font-family="Times,serif" font-size="14.00" fill="#000000">broker #2 Scenes</text>
</g>
<g id="clust6" class="cluster">
<title>cluster_root_1</title>
<polygon fill="none" stroke="#000000" points="95.3179,-8 95.3179,-156.8 257.3179,-156.8 257.3179,-8 95.3179,-8"/>
<text text-anchor="middle" x="176.3179" y="-140.2" font-family="Times,serif" font-size="14.00" fill="#000000">root #2</text>
</g>
<!-- client1 -->
<g id="node1" class="node">
<title>client1</title>
<ellipse fill="none" stroke="#000000" cx="37.3179" cy="-339.6" rx="37.1367" ry="18"/>
<text text-anchor="middle" x="37.3179" y="-335.4" font-family="Times,serif" font-size="14.00" fill="#000000">client1</text>
</g>
<!-- broker1 -->
<g id="node3" class="node">
<title>broker1</title>
<ellipse fill="none" stroke="#000000" cx="123.3179" cy="-262.8" rx="41.1335" ry="18"/>
<text text-anchor="middle" x="123.3179" y="-258.6" font-family="Times,serif" font-size="14.00" fill="#000000">broker1</text>
</g>
<!-- client1&#45;&gt;broker1 -->
<g id="edge1" class="edge">
<title>client1-&gt;broker1</title>
<path fill="none" stroke="#000000" d="M55.1371,-323.687C67.3108,-312.8156 83.642,-298.2315 97.2691,-286.0622"/>
<polygon fill="#000000" stroke="#000000" points="99.8006,-288.494 104.9281,-279.2225 95.138,-283.2728 99.8006,-288.494"/>
</g>
<!-- client2 -->
<g id="node2" class="node">
<title>client2</title>
<ellipse fill="none" stroke="#000000" cx="130.3179" cy="-339.6" rx="37.1367" ry="18"/>
<text text-anchor="middle" x="130.3179" y="-335.4" font-family="Times,serif" font-size="14.00" fill="#000000">client2</text>
</g>
<!-- client2&#45;&gt;broker1 -->
<g id="edge2" class="edge">
<title>client2-&gt;broker1</title>
<path fill="none" stroke="#000000" d="M128.659,-321.3995C127.8308,-312.3132 126.8104,-301.1176 125.8841,-290.9549"/>
<polygon fill="#000000" stroke="#000000" points="129.3582,-290.5109 124.9649,-280.8699 122.3871,-291.1463 129.3582,-290.5109"/>
</g>
<!-- function1 -->
<g id="node4" class="node">
<title>function1</title>
<ellipse fill="none" stroke="#000000" cx="123.3179" cy="-190.8" rx="48.0955" ry="18"/>
<text text-anchor="middle" x="123.3179" y="-186.6" font-family="Times,serif" font-size="14.00" fill="#000000">function1</text>
</g>
<!-- broker1&#45;&gt;function1 -->
<g id="edge3" class="edge">
<title>broker1-&gt;function1</title>
<path fill="none" stroke="#000000" d="M123.3179,-244.6314C123.3179,-236.931 123.3179,-227.7743 123.3179,-219.2166"/>
<polygon fill="#000000" stroke="#000000" points="126.818,-219.2132 123.3179,-209.2133 119.818,-219.2133 126.818,-219.2132"/>
</g>
<!-- broker_root_1 -->
<g id="node9" class="node">
<title>broker_root_1</title>
<ellipse fill="none" stroke="#000000" cx="176.3179" cy="-106" rx="66.0589" ry="18"/>
<text text-anchor="middle" x="176.3179" y="-101.8" font-family="Times,serif" font-size="14.00" fill="#000000">broker_root_1</text>
</g>
<!-- function1&#45;&gt;broker_root_1 -->
<g id="edge7" class="edge">
<title>function1-&gt;broker_root_1</title>
<path fill="none" stroke="#000000" d="M134.2995,-173.2294C141.6408,-161.4833 151.4355,-145.8118 159.7214,-132.5544"/>
<polygon fill="#000000" stroke="#000000" points="162.8359,-134.1749 165.168,-123.8399 156.8999,-130.4648 162.8359,-134.1749"/>
</g>
<!-- client3 -->
<g id="node5" class="node">
<title>client3</title>
<ellipse fill="none" stroke="#000000" cx="236.3179" cy="-339.6" rx="37.1367" ry="18"/>
<text text-anchor="middle" x="236.3179" y="-335.4" font-family="Times,serif" font-size="14.00" fill="#000000">client3</text>
</g>
<!-- broker2 -->
<g id="node7" class="node">
<title>broker2</title>
<ellipse fill="none" stroke="#000000" cx="243.3179" cy="-262.8" rx="41.1335" ry="18"/>
<text text-anchor="middle" x="243.3179" y="-258.6" font-family="Times,serif" font-size="14.00" fill="#000000">broker2</text>
</g>
<!-- client3&#45;&gt;broker2 -->
<g id="edge4" class="edge">
<title>client3-&gt;broker2</title>
<path fill="none" stroke="#000000" d="M237.9768,-321.3995C238.805,-312.3132 239.8254,-301.1176 240.7517,-290.9549"/>
<polygon fill="#000000" stroke="#000000" points="244.2487,-291.1463 241.6709,-280.8699 237.2776,-290.5109 244.2487,-291.1463"/>
</g>
<!-- client4 -->
<g id="node6" class="node">
<title>client4</title>
<ellipse fill="none" stroke="#000000" cx="329.3179" cy="-339.6" rx="37.1367" ry="18"/>
<text text-anchor="middle" x="329.3179" y="-335.4" font-family="Times,serif" font-size="14.00" fill="#000000">client4</text>
</g>
<!-- client4&#45;&gt;broker2 -->
<g id="edge5" class="edge">
<title>client4-&gt;broker2</title>
<path fill="none" stroke="#000000" d="M311.4986,-323.687C299.3249,-312.8156 282.9937,-298.2315 269.3667,-286.0622"/>
<polygon fill="#000000" stroke="#000000" points="271.4978,-283.2728 261.7077,-279.2225 266.8352,-288.494 271.4978,-283.2728"/>
</g>
<!-- function2 -->
<g id="node8" class="node">
<title>function2</title>
<ellipse fill="none" stroke="#000000" cx="243.3179" cy="-190.8" rx="48.0955" ry="18"/>
<text text-anchor="middle" x="243.3179" y="-186.6" font-family="Times,serif" font-size="14.00" fill="#000000">function2</text>
</g>
<!-- broker2&#45;&gt;function2 -->
<g id="edge6" class="edge">
<title>broker2-&gt;function2</title>
<path fill="none" stroke="#000000" d="M243.3179,-244.6314C243.3179,-236.931 243.3179,-227.7743 243.3179,-219.2166"/>
<polygon fill="#000000" stroke="#000000" points="246.818,-219.2132 243.3179,-209.2133 239.818,-219.2133 246.818,-219.2132"/>
</g>
<!-- function2&#45;&gt;broker_root_1 -->
<g id="edge8" class="edge">
<title>function2-&gt;broker_root_1</title>
<path fill="none" stroke="#000000" d="M229.4354,-173.2294C219.9764,-161.2574 207.2956,-145.2076 196.6962,-131.7923"/>
<polygon fill="#000000" stroke="#000000" points="199.3588,-129.5165 190.4131,-123.8399 193.8663,-133.8562 199.3588,-129.5165"/>
</g>
<!-- function_root_1 -->
<g id="node10" class="node">
<title>function_root_1</title>
<ellipse fill="none" stroke="#000000" cx="176.3179" cy="-34" rx="73.0209" ry="18"/>
<text text-anchor="middle" x="176.3179" y="-29.8" font-family="Times,serif" font-size="14.00" fill="#000000">function_root_1</text>
</g>
<!-- broker_root_1&#45;&gt;function_root_1 -->
<g id="edge9" class="edge">
<title>broker_root_1-&gt;function_root_1</title>
<path fill="none" stroke="#000000" d="M176.3179,-87.8314C176.3179,-80.131 176.3179,-70.9743 176.3179,-62.4166"/>
<polygon fill="#000000" stroke="#000000" points="179.818,-62.4132 176.3179,-52.4133 172.818,-62.4133 179.818,-62.4132"/>
</g>
</g>
</svg>